<?xml version="1.0" encoding="utf-8"?>
<!-- Generator: Adobe Illustrator 23.0.1, SVG Export Plug-In . SVG Version: 6.00 Build 0)  -->
<svg version="1.1" id="Layer_1" xmlns="http://www.w3.org/2000/svg" xmlns:xlink="http://www.w3.org/1999/xlink" x="0px" y="0px"
	 viewBox="0 0 600 600" style="enable-background:new 0 0 600 600;" xml:space="preserve">
<style type="text/css">
	.st0{fill:#594872;}
	.st1{fill:#F06794;}
</style>
<path id="color_x5F_2" class="st0" d="M289.75,55.06c2.47,2.83,3.88,6.47,3.98,10.14c0.13,4.66-1.44,8.67-4.67,12.06
	c-3.12,3.31-6.94,4.99-11.48,5.07c-4.57,0.08-8.45-1.47-11.69-4.67c-3.33-3.26-5.04-7.21-5.08-11.85
	c-0.03-3.67,1.25-7.36,3.62-10.28c3.25-4.01,7.47-6.09,12.59-6.17C282.1,49.26,286.36,51.17,289.75,55.06z M524.67,68.79
	c-1.75,10.32-3.49,20.65-5.24,30.97c4.44,0.72,8.48-0.14,12.16-2.6c4.61-3.04,6.97-7.51,7.02-13.46c0.01-1.74-0.39-3.5-1.18-5.09
	C534.72,73.09,530.44,69.81,524.67,68.79z M67.57,98.01c1.76-0.32,3.53-0.63,5.29-0.93c-2.23-7.58-4.48-15.15-6.74-22.72
	C66.59,82.24,67.07,90.13,67.57,98.01z M597.37,61.13c-8.17,9.15-16.21,18.36-24.11,27.64c-2.32,2.72-3.07,6.39-2.05,9.81
	c3.49,11.66,6.84,23.33,10.04,35.01c2.15,7.94-4.99,15.19-13.06,13.46c-21.03-4.51-42.15-8.45-63.33-11.88
	c-22.72-14.48-49.39-22.89-77.76-22.89c-4.2,0-8.46,0.18-12.67,0.55c-13.11,1.13-25.73,3.94-37.66,8.19
	c-115.34-6.93-231.38,1.68-344.94,26.04c-8.07,1.73-15.21-5.52-13.06-13.46c3.2-11.68,6.55-23.34,10.04-35.01
	c1.03-3.42,0.27-7.08-2.05-9.81c-7.91-9.28-15.94-18.5-24.11-27.64c-5.57-6.2-1.86-15.94,6.93-17.83
	c191.45-41.06,389.43-41.06,580.87,0C599.23,45.2,602.93,54.93,597.37,61.13z M95.89,113.14c-7.53-19.99-15.26-39.93-23.19-59.82
	c-6.67,1.13-13.33,2.31-19.99,3.53c-0.64,21.4-1.07,42.78-1.29,64.14c5.8-1.13,11.61-2.22,17.42-3.27c-0.17-2.63-0.34-5.27-0.51-7.9
	c2.6-0.47,5.21-0.93,7.82-1.38c0.75,2.53,1.49,5.06,2.23,7.6C84.21,115.04,90.05,114.07,95.89,113.14z M132.41,107.87
	c-0.67-5.19-1.35-10.37-2.02-15.56c-5.38,0.7-10.76,1.43-16.13,2.2c-2.22-15.54-4.43-31.08-6.65-46.62
	c-5.56,0.79-11.13,1.62-16.68,2.48c3.21,20.68,6.42,41.36,9.63,62.04C111.16,110.77,121.78,109.25,132.41,107.87z M168.41,103.7
	c-0.53-5.2-1.06-10.4-1.59-15.61c-5.39,0.55-10.78,1.13-16.17,1.75c-1.78-15.6-3.56-31.19-5.34-46.79
	c-5.58,0.64-11.16,1.31-16.73,2.01c2.63,20.76,5.26,41.52,7.89,62.28C147.11,106,157.75,104.78,168.41,103.7z M239.88,35.57
	c-6.18,0.27-12.35,0.59-18.53,0.94c-0.94,7.92-1.86,15.84-2.76,23.75c-1.85-7.75-3.72-15.5-5.62-23.24
	c-6.12,0.39-12.25,0.82-18.37,1.3c5.9,13.1,11.66,26.25,17.28,39.42c-2.36,7.58-4.67,15.16-6.93,22.76
	c5.34-0.39,10.68-0.75,16.02-1.07C226.93,78.1,233.23,56.81,239.88,35.57z M310.17,65.65c0.07-8.8-3.08-16.38-9.58-22.67
	c-6.47-6.35-14.45-9.48-23.84-9.32c-9.38,0.16-17.28,3.56-23.55,10.13c-6.28,6.51-9.17,14.19-8.8,22.98
	c0.37,8.82,3.87,16.24,10.37,22.3c7.96,7.39,17.64,10.09,29.31,8.22c4.49-0.72,8.79-2.62,12.37-5.39
	C305.44,84.95,310.08,76.24,310.17,65.65z M353.46,35.29c-5.62-0.22-11.24-0.41-16.87-0.56c-0.4,15.03-0.81,30.07-1.21,45.1
	c-0.04,1.32-0.72,1.96-2.05,1.92c-1.36-0.04-2.03-0.71-2-2.02c0.36-15.04,0.71-30.07,1.07-45.11c-5.61-0.13-11.21-0.23-16.82-0.3
	c-0.17,15.09-0.34,30.18-0.52,45.27c-0.04,3.47,0.77,6.97,2.73,9.87c4.21,6.2,9.91,9.04,17.23,8.57c3.59-0.23,7.09-1.64,9.81-3.94
	c4.33-3.67,6.64-8.24,6.86-13.72C352.28,65.35,352.87,50.32,353.46,35.29z M426.83,40.16c-5.61-0.52-11.21-1.01-16.82-1.47
	c-0.63,7.82-1.27,15.65-1.9,23.47c-1.83-8.02-3.71-16.04-5.63-24.06c-4.48-0.34-8.96-0.65-13.44-0.95
	c-1.37,20.88-2.73,41.77-4.1,62.65c5.34,0.35,10.68,0.73,16.01,1.15c0.61-7.83,1.22-15.65,1.83-23.48
	c1.84,8.02,3.64,16.04,5.4,24.06c4.27,0.36,8.54,0.74,12.81,1.13C422.94,81.83,424.89,61,426.83,40.16z M444.84,89.33
	c0.29-2.6,0.58-5.21,0.87-7.81c6-4.6,12.05-9.15,18.17-13.67c-5.48-0.67-10.96-1.32-16.45-1.92c0.29-2.61,0.58-5.21,0.87-7.82
	c5.52,0.61,11.03,1.26,16.54,1.93c0.64-5.19,1.28-10.38,1.92-15.56c-11.15-1.37-22.31-2.61-33.49-3.71
	c-2.05,20.83-4.09,41.65-6.14,62.48c10.66,1.05,21.31,2.23,31.95,3.54c0.64-5.19,1.28-10.38,1.92-15.57
	C455.62,90.56,450.23,89.93,444.84,89.33z M498.31,96.37c-5.37-0.82-10.74-1.6-16.11-2.35c0.36-2.59,0.73-5.19,1.09-7.78
	c6.13-4.42,12.32-8.8,18.57-13.14c-5.46-0.83-10.93-1.63-16.4-2.4c0.36-2.6,0.73-5.19,1.09-7.79c5.5,0.77,11,1.57,16.5,2.41
	c0.79-5.17,1.58-10.34,2.36-15.5c-11.12-1.69-22.25-3.25-33.4-4.67c-2.64,20.76-5.28,41.52-7.92,62.28
	c10.63,1.35,21.25,2.84,31.86,4.45C496.73,106.7,497.52,101.53,498.31,96.37z M549.09,66.6c-5.31-7.27-12.62-11.72-21.8-13.27
	c-5.55-0.94-11.1-1.84-16.65-2.71c-3.23,20.68-6.47,41.35-9.7,62.03c5.33,0.83,10.65,1.7,15.97,2.6c6.75,1.14,13.81,0.44,19.87-2.65
	c9.86-5.03,15.86-12.44,17.8-22.42C556.23,81.71,554.44,73.84,549.09,66.6z"/>
<path id="color_x5F_1" class="st1" d="M309.56,326.6c0,3.74-0.45,8.45-1.35,14.12c-1.68,9.67-5.16,20.5-10.45,32.49l-1.55,2.52
	c-15.22-1.55-27.02-8.83-35.4-21.86c-1.03-1.55-1.35-3.09-0.97-4.64l4.06-12.19l1.93-5.8c0.39-1.03,0.58-1.8,0.58-2.32
	c0-1.03-0.9-2.06-2.71-3.09l-3.48-0.97l-4.06-0.77c3.61-15.34,11.61-26.11,23.99-32.3c2.19-1.16,4.19-1.74,6-1.74
	c2.19,0,4.45,0.77,6.77,2.32c4.51,2.58,7.96,5.93,10.35,10.06c2.39,4.13,4.16,8.96,5.32,14.5
	C309.23,319.64,309.56,322.86,309.56,326.6z M560.35,262.25c3.3,155.68-177.89,290.7-222.43,321.51c-3.56,2.47-7.73,3.72-11.92,3.72
	c-2.94,0-5.9-0.62-8.67-1.88c-49.3-22.41-251.59-123.13-275.98-276.92c-12.2-76.94,40.96-150.28,118.53-157.48
	c4.18-0.39,8.33-0.58,12.44-0.58c51.28,0,96.86,29.51,118.87,73.61c0.83,1.67,2.41,2.47,3.99,2.47c1.85,0,3.7-1.11,4.31-3.22
	c14.94-51.1,59.97-90.33,116.26-95.18c3.81-0.33,7.59-0.49,11.34-0.49C499.62,127.83,558.78,188.2,560.35,262.25z M401.14,182.5
	c0,3.39,1.51,6.1,4.52,8.13c1.28,0.75,2.52,1.13,3.73,1.13c0.3,0,0.75-0.07,1.36-0.22c1.2-0.46,1.62-1.02,1.24-1.7
	c-0.3-0.68-0.45-1.43-0.45-2.26c0-1.13,0.23-2.18,0.68-3.16c0.68-1.95,1.62-4.37,2.82-7.23c0.23-0.46,0.34-0.91,0.34-1.36
	s-0.26-0.91-0.79-1.36c-1.21-1.13-2.9-1.7-5.08-1.7c-1.13,0-2.19,0.19-3.16,0.57c-0.98,0.37-1.77,0.94-2.37,1.7
	C402.23,177.07,401.29,179.56,401.14,182.5z M387.01,242.15c0,5.05,1.02,10.02,3.05,14.92c0.83,1.96,2.07,3.46,3.73,4.52
	c1.66,1.05,3.46,1.58,5.42,1.58c1.43,0,2.81-0.3,4.13-0.91c1.32-0.6,2.47-1.47,3.44-2.6c2.26-2.86,4.25-6.1,5.99-9.72l4.07-9.49
	c0.98-2.26,2.49-5.77,4.52-10.51c0.94-2.19,1.81-4.24,2.63-6.21c0.89,3.11,1.71,5.85,2.45,8.18c0.75,2.37,1.39,4.35,1.92,5.93
	c0.75,2.11,1.28,3.69,1.58,4.75l0.9,2.37l2.15,6.22c-0.75,0.53-1.41,0.96-1.98,1.3c-0.56,0.34-1.07,0.69-1.52,1.07
	c-2.34,2.04-4.3,4.56-5.88,7.57c-2.63,5.65-4.56,11.34-5.76,17.06c-0.6,3.01-0.9,5.87-0.9,8.58c0,1.21,0.04,2.11,0.11,2.71
	c0.23,3.01,1.11,5.42,2.66,7.23c1.54,1.81,3.71,2.98,6.5,3.5c1.2,0.23,2.45,0.34,3.73,0.34c3.54,0,6.8-0.85,9.77-2.54
	c2.97-1.7,5.33-4.01,7.06-6.95c3.39-5.5,5.08-11.56,5.08-18.19c0-0.98-0.08-2.37-0.23-4.18c-0.75-7.91-2.79-16.01-6.1-24.29
	c-2.86-6.93-4.97-12.65-6.33-17.17c-1.28-3.61-1.92-6.85-1.92-9.72c0-2.18,0.3-4.14,0.9-5.87c0.6-1.96,1.28-3.62,2.03-4.97
	c0.75-1.36,1.81-2.6,3.16-3.73c0.45,0.3,1.08,0.7,1.87,1.18c0.79,0.49,1.41,0.93,1.87,1.3c1.43,1.2,2.78,1.85,4.07,1.92
	c0.75,0,1.34-0.06,1.75-0.17c0.41-0.11,0.66-0.35,0.73-0.73c0.07-0.15,0.11-0.42,0.11-0.79c0-0.08-0.11-0.68-0.34-1.81
	c-0.15-0.38-0.42-0.75-0.79-1.13c-0.38-0.37-0.64-0.68-0.79-0.9c-3.54-3.54-8.21-5.8-14.01-6.78c-0.3-0.07-0.75-0.11-1.36-0.11
	c-2.11,0-4.11,0.83-5.99,2.49c-1.96,1.66-3.48,3.6-4.58,5.82c-1.09,2.22-2.01,4.8-2.77,7.74c-0.38,1.28-0.57,2.82-0.57,4.63
	c0,0.43,0.09,0.92,0.12,1.36c-4.99,11.26-8.85,19.71-11.53,25.3c-0.83,1.81-1.84,3.75-3.05,5.82c-1.2,2.08-2.41,4.05-3.61,5.93
	c-0.38,0.68-0.96,1.45-1.75,2.32c-0.79,0.87-1.41,1.52-1.87,1.97c-0.08,0-0.15-0.04-0.23-0.11c-0.08-0.08-0.19-0.11-0.34-0.11
	c0-0.46-0.04-0.91-0.11-1.36c-0.08-0.46-0.11-0.94-0.11-1.47c0-3.84,0.6-8.7,1.81-14.58l0.9-4.29c1.88-9.11,3.69-17.36,5.42-24.74
	c0.45-2.87,0.68-5.01,0.68-6.44c0-1.43-0.08-2.52-0.23-3.27c-0.08-0.15-0.19-0.47-0.34-0.96c-0.15-0.49-0.38-0.85-0.68-1.07
	c-0.53-0.6-1.38-1.09-2.54-1.47c-1.17-0.37-2.35-0.56-3.56-0.56c-1.21,0-2.22,0.22-3.05,0.67c-0.91,0.75-1.47,1.36-1.7,1.81
	c-0.23,0.53-0.75,1.68-1.58,3.44c-0.83,1.77-1.47,3.49-1.92,5.14c-2.26,9.79-4.14,18.53-5.65,26.21
	C387.24,237.48,387.01,239.82,387.01,242.15z M144.59,320.55c1.12-0.04,2.14-0.66,2.69-1.64c4.01-7.22,19.65-37.91,8.68-58.96
	c-5.49-10.53-18.65-14.69-28.81-8.54c-7.37,4.47-10.87,12.87-9.46,20.86c0.11,0.61-0.59,1.04-1.08,0.66
	c-6.47-4.9-15.54-5.62-22.88-1.11c-10.11,6.22-12.42,19.84-5.56,29.53C101.9,320.72,136.34,320.82,144.59,320.55z M174.74,429.31
	c24.76,5.42,43.33,9.41,55.71,11.99c13.41,2.84,24.44,4.19,33.08,4.06c9.54-0.52,16.57-1.1,21.08-1.74c1.55,0,3.09-0.32,4.64-0.97
	c1.03-0.52,1.55-1.23,1.55-2.13c0-0.65-0.32-1.23-0.97-1.74c-0.26-0.13-0.94-0.52-2.03-1.16c-1.1-0.64-2.16-0.97-3.19-0.97
	c-7.48-0.77-13.15-1.16-17.02-1.16c-15.35-0.26-30.3-1.87-44.87-4.84l-36.94-7.35l-12.96-2.13l5.22-10.25
	c3.22-6.97,6.12-14.02,8.7-21.18c2.58-7.15,5.74-16.47,9.48-27.95l3.68-11.02c2.19-6.83,5.8-18.83,10.83-35.98
	c0.64-1.93,1.55-3.29,2.71-4.06c9.16-6.06,18.24-14.12,27.27-24.18c13.02-13.8,22.82-29.72,29.4-47.78
	c1.42-5.03,2.13-9.15,2.13-12.38c0-0.78-0.13-2.19-0.39-4.26c-0.39-2.84-1.1-5.32-2.13-7.45c-1.03-2.13-2.58-3.97-4.64-5.51
	c-3.48-2.45-6.77-3.67-9.86-3.67c-2.58,0-5.42,0.84-8.51,2.51c-5.42,3.35-10,7.16-13.73,11.41c-6.71,7.48-12.96,16.25-18.76,26.31
	c-8.9,16.25-17.21,36.36-24.95,60.35c-4.77,14.96-10.45,33.21-17.02,54.74l-3.29,10.64c-4.9,16.25-9.99,29.92-15.28,41.01
	c-0.9,2.32-1.68,3.87-2.32,4.64c-0.65,0.77-1.42,1.26-2.32,1.45c-0.9,0.19-2.65,0.36-5.22,0.48c-1.03,0-1.81,0.06-2.32,0.19
	c-5.93,0.65-10.64,1.94-14.12,3.87c-2.32,1.03-4.13,2.51-5.42,4.45c-1.29,1.93-1.93,4.06-1.93,6.38c0,1.42,0.26,2.84,0.77,4.26
	c1.16,2.84,3.42,5.03,6.77,6.58c5.42,1.94,9.93,2.9,13.54,2.9c7.35,0,13.67-3.22,18.96-9.67l1.74-1.55l6.38-8.12
	C171,428.6,173.19,428.92,174.74,429.31z M456.75,464.06l-0.53-0.12c-21.74-4.91-44.74-7.51-70.3-7.95
	c-19.9-0.65-39.97,1.72-59.38,4.02c-3.66,0.44-7.33,0.87-10.99,1.29c-22.04,2.57-44.8,6.07-69.6,10.7
	c-20.64,4.15-44.9,9.35-68.36,16.5l-0.6,0.18l0.71,2.69l0.59-0.11c22.22-4.25,45.44-7.71,69.04-10.29
	c24.85-2.94,47.55-4.89,69.4-5.98c10.96-0.6,22.11-0.79,32.89-0.97c12.01-0.2,24.43-0.4,36.63-1.18c4.95-0.39,9.99-0.7,14.87-1.01
	c6.51-0.41,13.25-0.83,19.9-1.43c2.52-0.23,5.04-0.44,7.57-0.64c8.98-0.74,18.27-1.5,27.5-2.99l0.52-0.08L456.75,464.06z
	 M493.5,320.22c0-2.84-0.97-5.48-2.9-7.93c-6.32-6.7-13.8-9.67-22.44-8.9c-5.93,0.77-11.48,3.22-16.63,7.35
	c-13.03,10.44-22.37,24.37-28.05,41.78c-0.7,2.18-1.26,4.31-1.75,6.41c-0.87,1.04-1.79,2.09-2.79,3.16
	c-3.55,3.8-7.48,6.96-11.8,9.48c-4.32,2.51-8.54,3.64-12.67,3.38c0.51-1.8,1.42-5.61,2.71-11.41c1.42-7.22,2.51-13.54,3.29-18.96
	c0.77-5.41,1.16-10.76,1.16-16.05c0-1.67-0.13-4.45-0.39-8.32c-0.39-4-0.84-7.32-1.35-9.96c-0.52-2.64-1.35-5.19-2.51-7.64
	c-0.9-2.45-2.32-4.19-4.26-5.22c-2.06-1.03-4.52-1.55-7.35-1.55c-4.9,0-8.38,1.74-10.44,5.22c-2.71,4-4.52,7.87-5.42,11.61
	c-2.32,7.09-3.48,14.5-3.48,22.24c0,4.51,0.39,9.09,1.16,13.73c1.03,5.93,2.61,11.12,4.74,15.57c2.13,4.45,5.25,8.22,9.38,11.32
	l0.58,0.77c0.13-0.39-0.58,2.13-2.13,7.54c-2.84,9.03-6.26,16.89-10.25,23.6c-3.61,5.29-7.67,9.42-12.19,12.38
	c-2.45-2.19-3.94-5.41-4.45-9.67c-0.9-5.67-1.35-10.44-1.35-14.31c-0.52-10.7-1.16-26.5-1.94-47.39c-0.13-3.48-0.39-7.28-0.77-11.41
	c-0.39-4.13-0.65-6.9-0.77-8.32l-0.58-6.58c0-2.45-1.23-4.38-3.68-5.8c-2.71-1.55-5.61-2.32-8.7-2.32c-1.55,0-3.1,0.2-4.64,0.58
	c-3.09,0.39-4.64,2.19-4.64,5.42c0,1.8-0.13,4.9-0.39,9.28c-0.26,6.45-0.39,11.35-0.39,14.7c0,5.77,0.06,11.55,0.17,17.35
	c-3.44,3.74-6.96,6.96-10.61,9.53c-0.65,0.39-2.45,1.35-5.41,2.9l-0.58-0.58c0.39-0.64,0.68-1.26,0.87-1.84
	c0.19-0.58,0.42-1.13,0.68-1.64c4-9.8,7.03-18.47,9.09-26.02c2.06-7.55,3.09-15.25,3.09-23.12c0-7.99-2.13-15.34-6.38-22.05
	c-7.74-11.22-18.05-16.83-30.95-16.83c-2.45,0-4.9,0.19-7.35,0.58c-10.32,1.42-19.34,6.77-27.08,16.05
	c-7.09,8.77-10.51,19.15-10.25,31.14c0,2.06-0.19,3.48-0.58,4.25c-5.93,11.48-8.9,23.47-8.9,35.98c0,6.58,0.87,12.47,2.61,17.7
	c1.74,5.22,4.67,9.96,8.8,14.22c3.1,3.36,6.48,5.77,10.16,7.26c3.68,1.48,7.96,2.22,12.86,2.22c11.09,0,20.44-4.58,28.05-13.73
	c2.06-2.32,4.09-5.03,6.09-8.12c2-3.09,3.25-5.09,3.77-6c0.9-1.29,1.67-2.22,2.32-2.8c0.64-0.58,1.55-1,2.71-1.26
	c2.83-0.65,5.48-1.61,7.93-2.9c3.44-1.58,6.53-3.58,9.3-5.96c0.06,2.25,0.1,4.48,0.18,6.74c0.13,7.48,1.48,16.57,4.06,27.27
	c0.77,3.22,1.93,6.32,3.48,9.29c2.45,4.25,5.67,7.64,9.67,10.15c3.99,2.51,8.25,3.77,12.77,3.77c3.09,0,6.16-0.68,9.19-2.03
	c3.03-1.35,5.83-3.32,8.41-5.9c4-4.26,7.16-8.57,9.48-12.96c4.38-8.51,7.54-16.57,9.48-24.18c0.51-1.42,0.9-2.39,1.16-2.9h2.71
	c6.58,0,12.48-2.13,17.7-6.38c1.91-1.55,4-3.56,6.19-5.78c-0.18,1.83-0.29,3.63-0.29,5.39c0,1.29,0.13,3.22,0.39,5.8
	c1.29,8.51,4.84,14.99,10.64,19.44c5.8,4.45,12.31,6.67,19.53,6.67c5.29,0,9.86-1.16,13.73-3.48c2.32-1.42,4.42-3.03,6.29-4.84
	c1.87-1.8,4.03-4.19,6.48-7.16c0.9-1.03,1.8-2.45,2.71-4.25c0.26-0.52,0.39-1.16,0.39-1.94c0-2.19-1.48-3.29-4.45-3.29
	c-2.32,0-4.13,0.84-5.42,2.52c-0.52,0.65-0.94,1.23-1.26,1.74c-0.32,0.52-0.61,0.9-0.87,1.16c-5.16,6.06-9.93,10.06-14.31,11.99
	c-1.16,0.39-2.26,0.58-3.29,0.58c-2.19,0-4.19-0.97-6-2.9c-2.32-2.45-3.74-5.67-4.26-9.67c-0.26-2.58-0.39-4.58-0.39-6
	c0-4.9,0.71-10.06,2.13-15.48c0.13-0.25,0.97-2.96,2.51-8.12l8.9-0.39c14.18-2.58,25.85-9.99,35.01-22.25
	c1.67-2.32,3.09-5.15,4.26-8.51C493.24,322.67,493.5,321.25,493.5,320.22z M256.17,366.45c-0.77,4.26-1.16,8.45-1.16,12.57
	c0,1.55,0.13,3.87,0.39,6.97c0.26,5.54,2.19,10.44,5.8,14.7c2.32,2.58,4.58,3.87,6.77,3.87c1.42,0,2.97-0.39,4.64-1.16
	c4.51-1.8,8.19-4.38,11.03-7.74c2.83-3.35,6.19-8.25,10.06-14.7c-13.93-1.16-26.18-6.32-36.75-15.47
	C256.94,365.61,256.68,365.93,256.17,366.45z M427.46,280.11l-0.11,2.6c0,0.9,0.08,2.18,0.23,3.84c0.23,2.11,1.13,4.18,2.71,6.22
	c1.28-1.43,2.03-2.33,2.26-2.71c1.28-2.41,2.07-4.25,2.37-5.53c1.13-3.39,1.7-7.23,1.7-11.53c0-2.64-0.15-5.05-0.45-7.23
	c-0.3-2.26-0.56-3.95-0.79-5.08l-0.45-2.71c-1.2,1.2-2.15,2.75-2.82,4.63C429.76,267.65,428.21,273.49,427.46,280.11z
	 M386.92,304.55c-2.58,3.1-4.58,7.68-6,13.73c-1.42,6.06-2.13,12.51-2.13,19.34c0,5.8,0.55,11.22,1.65,16.25
	c1.09,5.03,2.67,9.09,4.74,12.19c1.93-7.48,3.22-12.31,3.87-14.51c1.8-7.61,2.71-15.02,2.71-22.25c0-4.51-0.39-8.96-1.16-13.35
	C390.21,311.32,388.98,307.52,386.92,304.55z M134.89,437.24c1.93-1.67,4.64-4.38,8.12-8.12c-2.71,0.39-4.77,1.29-6.19,2.71
	C135.41,433.25,134.76,435.05,134.89,437.24z M478.99,313.06c-0.26,0-0.9,0.13-1.93,0.39c-3.61,1.16-6.58,2.9-8.9,5.22
	c-8.25,7.09-14.96,16.38-20.12,27.85l-0.58,2.13h1.93c11.73-3.35,20.7-8.7,26.89-16.05c2.96-3.22,4.84-6.83,5.61-10.83
	c0.13-0.39,0.19-0.9,0.19-1.55c0-1.29-0.26-2.71-0.78-4.26C481.18,314.03,480.41,313.06,478.99,313.06z M220,297.01
	c6.83-5.67,14.12-13.28,21.86-22.82c7.61-9.02,13.28-18.31,17.02-27.85c1.67-4.77,2.87-8.44,3.58-11.03
	c0.71-2.58,1.06-5.35,1.06-8.32c-0.26-4.13-1.1-7.74-2.51-10.83c-3.74,1.42-7.22,4.45-10.45,9.09c-5.68,8.12-9.86,14.77-12.57,19.92
	c-3.61,6.58-6.84,13.41-9.67,20.5c-2.84,7.1-6.06,15.73-9.67,25.92c-0.9,1.8-1.81,4.51-2.71,8.12h0.77L220,297.01z"/>
</svg>
