<?xml version="1.0" encoding="utf-8"?>
<!-- Generator: Adobe Illustrator 23.0.1, SVG Export Plug-In . SVG Version: 6.00 Build 0)  -->
<svg version="1.1" id="Layer_1" xmlns="http://www.w3.org/2000/svg" xmlns:xlink="http://www.w3.org/1999/xlink" x="0px" y="0px"
	 viewBox="0 0 600 600" style="enable-background:new 0 0 600 600;" xml:space="preserve">
<style type="text/css">
	.st0{fill:#F06794;}
	.st1{fill:#82CFC9;}
</style>
<path id="color_x5F_2" class="st0" d="M382.48,504.82c1.01,9.38,2.02,18.75,3.03,28.13c-2.02-0.31-4.03-0.63-6.05-0.95
	C380.46,522.94,381.47,513.88,382.48,504.82z M565.26,502.69c-1.95,4.53-1.95,9.07,0,12.24c6.23,10.14,12.47,20.05,18.7,29.69
	c4.56,6.99-2,20.74-12.11,24.59c-186.09,70.36-372.17-81.44-558.26-11.08c-10.11,3.85-16.67-3.73-12.11-14.79
	c6.23-15.01,12.46-29.77,18.7-44.28c1.95-4.53,1.95-9.07,0-12.24c-6.23-10.14-12.46-20.05-18.7-29.69
	c-4.56-6.99,2-20.74,12.11-24.59c15.28-5.78,30.55-10.03,45.83-13.06c14.03,7.17,27.37,11.26,34.02,13.03
	c1.51,0.4,3.07,0.61,4.63,0.61c4.69,0,9.12-1.8,12.49-5.06c3.08-2.99,8.01-8.05,13.41-14.61c76.33,0.05,152.66,22.67,228.99,37.25
	c6.12,5.92,11.47,10.57,15.16,13.63c3.68,3.06,8.35,4.74,13.13,4.74c2.34,0,4.64-0.39,6.84-1.17c4.89-1.73,12.24-4.51,20.88-8.4
	c54.29,6.26,108.59,4.66,162.88-15.87c10.11-3.85,16.67,3.73,12.11,14.79C577.72,473.43,571.49,488.18,565.26,502.69z
	 M123.18,439.36c-6.14,0.01-12.28,0.16-18.42,0.48c0,24.58,0,49.16,0,73.73c6.14-0.32,12.28-0.47,18.42-0.48
	C123.18,488.51,123.18,463.93,123.18,439.36z M171.74,442.06c-6.16-0.66-12.32-1.21-18.47-1.64c0,9.22,0,18.44,0,27.66
	c-2.75-9.41-5.51-18.8-8.26-28.16c-4.92-0.25-9.83-0.43-14.75-0.51c0,24.58,0,49.16,0,73.73c6.14,0.1,12.28,0.34,18.42,0.71
	c0-9.22,0-18.44,0-27.66c2.77,9.38,5.55,18.79,8.32,28.23c4.92,0.38,9.83,0.84,14.75,1.36
	C171.74,491.21,171.74,466.64,171.74,442.06z M240.21,452.89c-13.83-2.73-27.66-5.24-41.49-7.33c0,6.14,0,12.28,0,18.42
	c3.84,0.58,7.67,1.19,11.51,1.83c0,18.44,0,36.88,0,55.31c6.14,1.02,12.28,2.12,18.42,3.27c0-18.44,0-36.88,0-55.31
	c3.85,0.72,7.71,1.47,11.56,2.23C240.21,465.17,240.21,459.03,240.21,452.89z M287.26,462.82c-6.16-1.35-12.31-2.69-18.47-4.01
	c0,9.22,0,18.44,0,27.66c-1.53-0.33-3.06-0.66-4.59-0.98c0-9.22,0-18.44,0-27.66c-6.14-1.31-12.28-2.59-18.42-3.83
	c0,24.58,0,49.16,0,73.73c6.14,1.24,12.28,2.52,18.42,3.83c0-9.22,0-18.44,0-27.66c1.53,0.33,3.06,0.65,4.59,0.98
	c0,9.22,0,18.44,0,27.66c6.16,1.32,12.31,2.66,18.47,4.01C287.26,511.97,287.26,487.39,287.26,462.82z M331.18,472.28
	c-12.28-2.55-24.56-5.23-36.84-7.92c0,24.58,0,49.16,0,73.73c12.28,2.69,24.56,5.37,36.84,7.92c0-6.14,0-12.28,0-18.42
	c-6.14-1.27-12.28-2.58-18.42-3.91c0-3.08,0-6.16,0-9.24c6.14-4.82,12.28-9.65,18.42-14.51c-6.14-1.27-12.28-2.58-18.42-3.91
	c0-3.08,0-6.16,0-9.24c6.14,1.32,12.28,2.63,18.42,3.91C331.18,484.56,331.18,478.42,331.18,472.28z M408.3,559.09
	c-4.92-25.15-9.83-50.36-14.75-75.64c-7.38-1.04-14.76-2.21-22.15-3.47c-4.91,23.74-9.83,47.43-14.74,71.08
	c6.75,1.27,13.5,2.46,20.26,3.58c0.34-3.02,0.68-6.04,1.03-9.07c3.01,0.49,6.01,0.96,9.02,1.42c0.34,3.13,0.68,6.26,1.03,9.39
	C394.76,557.39,401.53,558.3,408.3,559.09z M432.12,487.6c-6.14-0.43-12.28-0.98-18.42-1.63c0,24.58,0,49.16,0,73.73
	c6.14,0.65,12.28,1.21,18.42,1.64C432.12,536.75,432.12,512.17,432.12,487.6z M471.33,530.03c6.23-4.88,9.34-11.25,9.34-18.84
	c0-6.3-2.27-11.57-6.8-15.92c-4.5-4.39-9.92-6.57-16.26-6.63c-6.14-0.06-12.28-0.27-18.42-0.61c0,24.58,0,49.15,0,73.73
	c6.14,0.33,12.28,0.54,18.42,0.61c0-9.22,0-18.44,0-27.66c1.53,9.24,3.06,18.46,4.59,27.68c6.16-0.01,12.32-0.16,18.47-0.48
	C477.56,551.33,474.45,540.7,471.33,530.03z M460.83,508.46c-0.41-0.41-0.9-0.75-1.46-1c-0.56-0.26-1.14-0.39-1.76-0.39
	c0,3.08,0,6.16,0,9.24c0.61,0.01,1.2-0.11,1.76-0.36c0.56-0.25,1.04-0.59,1.46-1.02c0.42-0.43,0.75-0.93,1-1.49
	c0.25-0.55,0.38-1.15,0.38-1.76c0-0.61-0.13-1.2-0.38-1.76C461.57,509.36,461.24,508.88,460.83,508.46z M450.98,310.5
	c26.49,4.82,42.58,31.68,36.06,57.8c-13.04,52.22-85.73,80.79-103.38,87.02c-0.72,0.25-1.46,0.35-2.2,0.38
	c-0.07,0-0.14,0.04-0.22,0.04c-0.87,0-1.72-0.17-2.53-0.48c-0.75-0.28-1.46-0.67-2.09-1.19c-14.41-11.95-72.72-63.91-66.89-117.42
	c1.34-12.31,7.25-23.1,15.79-30.72c4.47,1.48,9.61,2.45,15.69,2.45c11.36,0,22.29-3.74,31.67-10.79
	c14.45,5.84,24.85,18.61,27.84,33.59c0.16,0.8,0.84,1.24,1.53,1.24c0.5,0,1-0.23,1.31-0.74c8.23-13.42,23.01-21.94,39.14-21.94
	C445.43,309.75,448.2,309.99,450.98,310.5z M364.83,347.9c0,4.07,3.33,7.52,7.39,7.52c4.32,0,7.52-3.45,7.52-7.52
	c0-4.31-3.2-7.52-7.52-7.52C368.16,340.38,364.83,343.59,364.83,347.9z M432.97,398.3c0-1.73-2.34-4.93-4.44-4.93
	c-1.11,0-1.97,0.99-2.83,3.33c-1.36,3.94-4.31,7.64-10.1,8.87c0.37-1.36,0.61-2.96,0.61-4.44c0-11.71-7.52-16.14-13.31-26.37
	c0.12-0.74,2.96-4.8,2.96-8.38c0-3.33-1.48-5.54-4.44-5.54c-3.33,0-10.47,5.54-10.47,9.73c0,2.09,0.74,3.94,1.97,5.79
	c-2.22,6.53-4.81,13.56-6.04,18.98c0,0.01,0,0.02,0,0.03c-0.14,0.39-0.27,0.82-0.37,1.33c-0.26,1.25-0.58,2.64-0.98,4.03
	c-0.11-0.02-0.29-0.09-0.38-0.09c-1.93,0-4.11,3.33-3.06,7.33c-1.06,1.22-2.3,2.04-3.84,2.04c-3.2,0-3.2-4.56-3.2-5.67v-31.3
	c0-2.96-2.59-5.42-6.65-5.42c-1.73,0-3.2,0.86-3.2,2.09c0,0.86,0.49,1.6,0.49,3.94v32.9c0,6.29,3.82,11.58,10.35,11.58
	c4.21,0,7.49-1.76,10.07-4.38c2.83,2.14,8,4.38,12.6,4.38c5.05,0,9.12-1.85,12.08-4.44c7.64-0.49,12.69-2.84,16.51-5.92
	C430.14,405.44,432.97,400.76,432.97,398.3z M455.22,328.06c12.28,7.09,19.26,21.06,17.78,35.59c-0.2,1.97,1.23,3.73,3.2,3.93
	c0.12,0.01,0.25,0.02,0.37,0.02c1.82,0,3.37-1.38,3.56-3.22c1.77-17.34-6.6-34.03-21.33-42.53c-1.71-1-3.91-0.4-4.89,1.31
	C452.91,324.88,453.5,327.07,455.22,328.06z M394.04,397.81c-0.07,0.27-0.21,0.43-0.31,0.66c-0.02,0.15-0.02,0.31-0.06,0.45
	c-0.4,1.46-0.89,3.02-1.47,4.59c4.23,1.99,9.31,4.28,12.81,4.28c1.36-1.6,2.71-4.44,2.71-7.52c0-7.76-4.56-12.94-8.87-17.38
	C396.87,387.7,395.64,391.89,394.04,397.81z"/>
<path id="color_x5F_1" class="st1" d="M103.39,210.53c-3.95,9.67-7.93,18.06-11.87,25.02c-17.37-14.01-33.13-21.11-46.89-21.11
	c-11.38,0-21.14,3.8-29,11.28c-7.86,7.48-12.22,17.74-12.98,30.7c0,0.97,0.03,1.95,0.09,2.95c0.12,1.98,0.36,4,0.77,6.02
	c0.41,2.02,0.98,4.03,1.75,6c1.54,3.94,3.89,7.71,7.35,10.99c6.05,5.75,15.49,10.01,29.92,11.11c9.59,0,19.17-2.24,28.48-6.65
	c9.29-4.4,17.24-10.48,23.64-18.12l0.95-1.16c1.88,1.73,4.07,3.81,6.55,6.22c1.24,1.21,2.56,2.5,3.95,3.87
	c1.39,1.37,2.86,2.83,4.4,4.37l9.09,8.74c3.74,3.75,7.32,7.29,10.73,10.65c3.41,3.35,6.65,6.5,9.71,9.45
	c3.06,2.95,5.95,5.69,8.66,8.22c2.71,2.53,5.23,4.85,7.57,6.95c9.51,8.56,20.31,16.16,32.09,22.59c12.04,6.57,24.22,9.9,36.21,9.9
	c11.92,0,23.17-2.54,33.44-7.54c10.51-5.14,18.13-12.83,22.66-22.89l0.89-3.37l0.1-0.81c0-2.34-0.87-4.72-2.58-7.07
	c-1.92-2.61-4.73-3.99-8.13-3.99c-2.06,0-4.02,0.59-5.83,1.75c-0.94,0.6-1.75,1.31-2.41,2.13c-0.66,0.82-1.17,1.75-1.54,2.77
	c-1.25,2.66-2.98,5.02-5.21,7.08c-2.23,2.07-4.96,3.85-8.22,5.38c-3.4,1.59-7.02,2.78-10.83,3.58c-3.81,0.8-7.82,1.2-12,1.2
	c-4.6,0-9.28-0.7-14.03-2.1c-2.37-0.7-4.76-1.57-7.15-2.61c-2.4-1.04-4.8-2.26-7.21-3.64c-9.93-5.71-19.14-12.36-27.36-19.79
	c-7.31-6.6-17.06-15.95-29.07-27.87c-1.72-1.7-3.48-3.46-5.29-5.27l-26.88-25.89l0,0c3.9-6.42,7.77-13.86,11.58-22.23
	c1.27-2.79,2.53-5.68,3.78-8.67c1.01-2.51,2.14-5.46,3.39-8.85c2.08-5.65,4.49-12.52,7.21-20.58c0.68-2.02,1.38-4.11,2.1-6.27
	c2.16-6.5,4.51-13.67,7.02-21.5c2.01-6.27,4.14-12.96,6.38-20.06c8.34-28.4,15.9-51.3,22.49-68.1c3.35-0.94,6.6-1.97,9.74-3.09
	c6.27-2.22,12.1-4.78,17.44-7.64c2.67-1.43,5.22-2.95,7.65-4.53c4.05-2.65,7.35-5.44,9.89-8.37c0.85-0.98,1.61-1.97,2.29-2.97
	c1.36-2.01,2.38-4.07,3.06-6.19c0.68-2.12,1.02-4.29,1.02-6.51c0-3.29-0.58-6.29-1.73-8.99c-1.15-2.7-2.87-5.1-5.16-7.18
	c-4.48-4.07-10.26-6.14-17.17-6.14c-4.59,0-9.05,1.18-13.35,3.52c-2.15,1.17-4.26,2.63-6.32,4.38c-2.06,1.75-4.08,3.78-6.06,6.11
	c-5.33,6.27-9.95,13.43-13.82,21.36c-1.29,2.64-2.5,5.38-3.61,8.19l-27.98,4.28c-23.63,3.74-43.12,7.55-57.93,11.31
	c-5.68,1.44-11.12,3.25-16.31,5.42c-5.19,2.17-10.13,4.7-14.79,7.58c-1.55,0.96-3.08,1.96-4.57,2.99c-1.49,1.04-2.95,2.11-4.38,3.23
	c-2.95,2.3-5.6,4.82-7.96,7.55c-4.71,5.48-8.24,11.82-10.56,18.96c-1.16,3.57-2.01,7.34-2.56,11.3c-0.28,1.4-0.42,3.45-0.41,6.15
	c-0.06,1.62-0.07,3.2-0.02,4.76c0.05,1.55,0.16,3.07,0.33,4.56c0.17,1.49,0.39,2.94,0.67,4.36c0.7,3.55,1.76,6.88,3.17,9.99
	c1.41,3.11,3.16,5.99,5.26,8.63c0.91,1.26,1.87,2.45,2.87,3.58c1,1.13,2.04,2.2,3.13,3.2c2.18,2,4.53,3.75,7.05,5.24
	c1.26,0.75,2.56,1.43,3.91,2.04c2.02,0.92,4.13,1.7,6.34,2.33c2.21,0.63,4.51,1.11,6.9,1.45c0.3,0.07,0.64,0.13,1.02,0.18
	c1.13,0.15,2.6,0.23,4.52,0.23c2.96,0,5.55-1.01,7.7-2.99c1.07-0.99,1.9-2.11,2.46-3.31c0.56-1.21,0.87-2.51,0.89-3.87
	c0.28-2.99-0.63-5.71-2.64-7.89c-1.52-1.65-3.4-2.69-5.38-3.12c-0.66-0.14-1.33-0.22-2-0.22L51,162.8
	c-1.71-0.21-3.32-0.55-4.83-1.03c-3.03-0.97-5.67-2.49-7.98-4.6c-1.15-1.06-2.22-2.26-3.21-3.61c-2.99-3.94-4.72-8.33-5.21-13.4
	c-0.16-1.69-0.19-3.46-0.08-5.31c0-0.52,0.01-0.97,0.03-1.36c0.05-1.17,0.15-1.76,0.22-2.04l0.07-0.35
	c0.95-6.79,3.35-12.64,7.28-17.66c1.18-1.51,2.5-2.94,3.95-4.31c1.46-1.36,3.05-2.66,4.79-3.88c3.59-2.53,7.42-4.82,11.49-6.86
	c4.07-2.04,8.36-3.83,12.88-5.36c3.01-1.02,6.11-1.93,9.31-2.72c8.16-2.02,17.99-4.06,29.38-6.11c3.42-0.61,6.98-1.23,10.67-1.84
	c3.7-0.61,7.53-1.23,11.5-1.84c6.57-1.04,11.85-1.9,15.86-2.56c-5.25,14.85-11.47,33.98-18.51,56.98
	C117.88,169.59,109.4,195.06,103.39,210.53z M78.32,254.92c-2.3,2.63-4.84,5-7.6,7.1c-2.76,2.1-5.74,3.92-8.91,5.45
	c-6.3,3.04-12.79,4.59-19.28,4.59c-2.89,0-5.5-0.33-7.8-0.98s-4.31-1.62-5.99-2.91c-1.57-1.2-2.74-2.76-3.51-4.69
	s-1.16-4.25-1.16-6.96c0.05-1.6,0.22-3.11,0.49-4.53c0.28-1.42,0.67-2.76,1.19-4.01c1.02-2.5,2.51-4.67,4.49-6.55
	c3.97-3.76,8.56-5.59,14.05-5.59c5.03,0,10.58,1.64,16.5,4.87c4.13,2.25,8.7,5.2,13.66,8.81c1.65,1.2,3.35,2.48,5.09,3.83
	C79.14,253.84,78.73,254.37,78.32,254.92z M189.77,38.31c3.49-3.88,6.65-5.93,9.12-5.93c0.6,0,0.9,0.17,1.15,0.42
	c0.13,0.13,0.24,0.27,0.32,0.46c0.08,0.18,0.12,0.41,0.12,0.71c0,0.17-0.03,0.46-0.18,0.87c-0.15,0.41-0.42,0.94-0.89,1.61
	c-0.95,1.32-2.71,3.16-5.99,5.55l0,0c-3.21,2.34-6.71,4.23-10.45,5.63C185.02,44.18,187.3,41.06,189.77,38.31z M293.6,200.69
	c0.96-2.97,1.83-5.86,2.61-8.68c0.78-2.82,1.48-5.57,2.08-8.23c2.01-8.89,3.03-16.92,3.03-23.99c0-11.79-3.35-21.58-9.97-29.08
	c-6.71-7.61-16.28-11.59-28.5-11.84c-7.19,0-14.28,1.88-21.16,5.61c-2.29,1.24-4.57,2.69-6.81,4.34c-3.29,2.42-6.5,5.28-9.62,8.57
	c-1.04,1.1-2.07,2.24-3.09,3.43c-2.04,2.38-4.04,4.96-5.99,7.71c-1.95,2.76-3.86,5.69-5.72,8.81c-2.52,4.12-4.88,8.22-7.09,12.31
	c-15.45,28.64-23.27,56.59-23.27,83.25c0,2.01,0.07,3.91,0.21,5.72c0.62,8.15,2.6,14.39,5.46,19.13c2.14,3.56,4.77,6.27,7.7,8.31
	c0.97,0.68,1.98,1.29,3.02,1.83c1.38,0.72,2.8,1.32,4.25,1.81c4.34,1.48,8.93,2.01,13.28,2.01c5.39,0,10.9-1.26,16.47-3.75
	c1.11-0.5,2.23-1.05,3.34-1.64c1.12-0.6,2.23-1.24,3.35-1.94c1.12-0.7,2.24-1.44,3.36-2.24c1.97-1.39,3.9-2.88,5.8-4.46
	c1.9-1.58,3.76-3.25,5.59-5.01c1.83-1.76,3.62-3.61,5.36-5.54c1.75-1.94,3.46-3.96,5.12-6.06c1.92,1.36,3.91,2.54,5.96,3.56
	c1.54,0.76,3.11,1.43,4.72,2.01c4.83,1.73,9.98,2.59,15.4,2.59c4.87,0,9.56-0.83,14.05-2.48c1.5-0.55,2.97-1.19,4.42-1.92
	c0.97-0.49,1.93-1.01,2.87-1.58c0.95-0.57,1.88-1.17,2.81-1.82c0.38,8.68,2.71,15.79,6.98,21.12c0.61,0.76,1.25,1.47,1.94,2.14
	c0.95,0.92,1.99,1.71,3.09,2.45c0.74,0.49,1.48,0.98,2.28,1.39c2.74,1.43,5.85,2.38,9.32,2.83c1.59,0.21,3.22,0.35,4.96,0.35
	c2.99,0,5.91-0.37,8.73-1.09c1.88-0.48,3.73-1.13,5.53-1.93c0.72-0.32,1.43-0.69,2.14-1.06c1.94-1.03,3.83-2.22,5.66-3.63
	c0.87-0.67,1.76-1.42,2.67-2.21c0.74-0.64,1.49-1.33,2.25-2.05c2.3-2.18,4.74-4.74,7.33-7.72c1.81-2.08,3.7-4.35,5.67-6.83
	c0.98-1.24,1.99-2.53,3.01-3.87c2.44,1.97,5.11,3.58,7.99,4.82c2.4,1.03,4.95,1.81,7.64,2.33c1.35,0.26,2.73,0.45,4.14,0.58
	c1.42,0.13,2.87,0.19,4.35,0.19c5.42,0,10.71-1.04,15.85-3.1c1.71-0.69,3.41-1.48,5.09-2.39c2.69-1.46,5.33-3.2,7.92-5.23
	c1.3-1.01,2.58-2.1,3.85-3.25c0.46,2.17,1.04,4.26,1.75,6.28c0.53,1.51,1.13,2.98,1.79,4.4c2,4.27,4.62,8.13,7.88,11.56
	c8.93,9.43,21.27,14.22,36.68,14.22c5.22,0,10.28-0.5,15.19-1.49c1.63-0.33,3.25-0.72,4.85-1.16c4.26-1.18,8.4-2.74,12.39-4.7
	c5.99-2.93,11.68-6.73,17.02-11.4c14-12.2,26.99-31.38,38.62-57.01l0.12-0.32c0.31-0.93,0.53-1.68,0.67-2.3
	c0.14-0.62,0.2-1.12,0.2-1.56c0-3.41-1.3-6.27-3.81-8.34c-0.84-0.69-1.81-1.3-2.92-1.8c-1.32-0.49-2.65-0.74-3.98-0.74
	s-2.66,0.25-3.97,0.74c-2.68,1-4.71,2.85-6.11,5.66c-2.34,5.43-4.75,10.52-7.2,15.25c-4.91,9.46-10.04,17.51-15.35,24.08
	c-2.66,3.29-5.36,6.21-8.1,8.75c-5.34,4.95-11.03,8.68-17.02,11.18c-5.99,2.49-12.29,3.75-18.85,3.75c-4.8,0-9.07-0.62-12.76-1.84
	s-6.82-3.06-9.36-5.49c-5.1-4.89-7.58-11.63-7.58-20.62c0-1.71,0.07-3.47,0.2-5.25c0.27-3.57,0.81-7.28,1.61-11.11
	c0.4-1.91,0.87-3.85,1.4-5.82c23.6-5.92,44.75-14.77,62.88-26.31c7.25-4.62,13.16-9.66,17.71-15.12c3.04-3.64,5.47-7.45,7.3-11.45
	c1.83-3.99,3.05-8.16,3.66-12.49c0.31-2.17,0.46-4.38,0.46-6.63c0-2.3-0.2-4.48-0.6-6.54c-0.4-2.06-0.99-4-1.78-5.81
	c-0.79-1.81-1.78-3.5-2.96-5.06c-1.18-1.56-2.56-3-4.13-4.3c-6.1-5.06-14.08-7.62-23.74-7.62c-14.03,0-27.56,6.92-40.22,20.57
	c-12.27,13.23-22.48,29.52-30.33,48.43c-2.75,6.62-5.04,13.06-6.92,19.33c-0.62,2.09-1.2,4.16-1.73,6.21
	c-3.03,8.25-7.52,15.82-13.44,22.56c-2.59,2.95-5.25,5.36-7.96,7.22c-4.52,3.09-9.19,4.65-13.96,4.65c-1.26,0-2.46-0.09-3.62-0.28
	c-2.31-0.38-4.41-1.14-6.34-2.3c-0.96-0.58-1.88-1.25-2.75-2.03c3.79-6.75,11.64-21.68,23.4-44.47
	c13.23-25.64,24.35-47.59,33.06-65.24l0.18-0.43c0.59-1.8,0.87-3.13,0.87-4.21c0-3.18-1.14-5.9-3.33-8c-0.73-0.7-1.58-1.34-2.54-1.9
	l-0.63-0.28c-0.89-0.3-1.68-0.52-2.37-0.66c-0.69-0.14-1.3-0.21-1.84-0.21c-4.24,0-7.67,2.03-10.03,6.1
	c-0.17,0.36-0.37,0.76-0.58,1.2c-0.43,0.89-0.95,1.94-1.55,3.17c-0.6,1.23-1.29,2.62-2.07,4.19c-0.78,1.57-1.64,3.31-2.59,5.22
	c-0.95,1.91-1.99,4-3.12,6.27c-3.95,7.93-9,18.01-15.19,30.32c-7.08,14.09-12.61,25.02-16.57,32.73c-0.38-0.78-0.85-1.54-1.42-2.24
	c-0.54-0.66-1.12-1.24-1.75-1.75c-1.88-1.51-4.13-2.29-6.63-2.29c-0.61,0-1.2,0.05-1.77,0.15c-1.15,0.2-2.24,0.59-3.26,1.17
	c-0.51,0.29-1,0.63-1.47,1.02c-1.82,1.49-3.08,3.41-3.73,5.69c-1.72,5.89-2.6,11.88-2.6,17.8c0,5.27,0.85,10.68,2.52,16.11
	c-3.42,5.71-7.09,10.86-10.97,15.38c-1.29,1.51-2.61,2.94-3.95,4.31c-1.94,1.98-3.86,3.6-5.74,4.84c-2.51,1.66-4.96,2.66-7.33,3
	c-0.59,0.08-1.18,0.13-1.76,0.13c-0.97,0-1.77-0.1-2.43-0.25c-0.66-0.16-1.17-0.37-1.57-0.6c-0.81-0.46-1.17-0.98-1.36-1.25
	c-0.11-0.15-0.21-0.32-0.32-0.52c-0.76-1.38-1.53-3.97-1.53-8.81c0-5.95,2.66-17.13,7.92-33.23c5.37-16.44,16.47-47.8,32.96-93.1
	c1.34-3.37,0.99-6.74-1.02-9.76c-2.03-3.04-5.17-4.64-9.1-4.64c-1.14,0-2.23,0.15-3.26,0.44c-1.03,0.29-2.01,0.73-2.92,1.31
	c-0.49,0.31-0.94,0.65-1.35,1.02c-1.23,1.1-2.12,2.45-2.64,4l-16.15,44.96c-5.03,13.71-9.27,25.57-12.75,35.62
	c-0.37,0.59-0.69,1.2-0.9,1.84c-1.48,3.52-2.97,6.82-4.47,9.89c-2.25,4.6-4.52,8.69-6.81,12.24c-0.76,1.18-1.52,2.31-2.29,3.37
	c-1.53,2.13-3.06,4.02-4.59,5.67c-5.84,6.26-11.77,9.31-18.12,9.31c-1.49,0-2.9-0.09-4.21-0.28c-3.95-0.56-7.12-1.96-9.58-4.23
	c5.79-10.03,10.81-20.6,15-31.55C291.09,208.11,292.39,204.42,293.6,200.69z M483.51,175.25c1.82-3.1,3.7-6.09,5.63-8.98
	c1.94-2.89,3.93-5.66,5.98-8.33c1.13-1.47,2.26-2.84,3.4-4.13c1.14-1.29,2.29-2.48,3.44-3.58c2.3-2.21,4.63-4.05,6.98-5.53
	c4.7-2.95,9.47-4.44,14.29-4.44c4.04,0,7.18,0.66,9.33,1.97c0.26,0.16,0.55,0.36,0.83,0.64c0.28,0.28,0.55,0.62,0.79,1.08
	c0.24,0.45,0.45,1.01,0.59,1.71c0.15,0.69,0.23,1.52,0.23,2.52c0,5.17-1.59,9.99-4.83,14.54c-2.43,3.41-5.77,6.66-10.07,9.77
	c-1.43,1.04-2.97,2.06-4.61,3.07h0c-6.01,3.71-12.56,7.2-19.6,10.45c-7.04,3.25-14.58,6.27-22.57,9.03
	C476.48,188.06,479.88,181.44,483.51,175.25z M279.61,165.63c-0.58,6.5-2.03,13.89-4.33,22.06c-1.71,6.07-3.76,12.1-6.14,18.06
	c-0.13-0.21-0.27-0.42-0.41-0.62l0,0c-2.03-2.87-5.04-4.39-8.7-4.39c-2.6,0-4.93,0.75-6.91,2.25c-1.03,0.77-1.87,1.68-2.49,2.7
	c-0.63,1.02-1.05,2.15-1.24,3.36c-1.44,5.81-2.17,11.58-2.17,17.16c0,6,0.81,11.49,2.42,16.34c-5.82,7.99-11.96,14.69-18.26,19.93
	c-4.7,3.9-9.16,6.36-13.32,7.35c-1.39,0.33-2.74,0.49-4.06,0.49c-1.3,0-2.71-0.12-4.09-0.55c-0.69-0.21-1.38-0.51-2.03-0.9
	c-0.99-0.59-1.93-1.42-2.75-2.55c-1.93-2.65-3.25-7-3.25-14.1c0-6.38,0.57-12.92,1.72-19.61c1.14-6.69,2.86-13.54,5.14-20.53
	c4.56-13.98,11.38-28.53,20.44-43.56c5.18-8.78,10.8-15.83,16.71-20.96c5.55-4.82,11.15-7.27,16.62-7.27
	c5.22,0,9.34,1.58,12.59,4.82c1.6,1.6,2.8,3.61,3.61,6c0.81,2.39,1.21,5.18,1.21,8.33C279.9,161.39,279.8,163.46,279.61,165.63z
	 M596.32,397.16c-14.64,24.13-55.48,27.16-65.28,27.54c-0.05,0-0.1,0-0.15,0c-1.28,0-2.48-0.64-3.18-1.72
	c-5.36-8.22-26.5-43.3-15.27-69.19c4.07-9.39,13.22-15.16,22.73-15.15c3.6,0,7.26,0.83,10.71,2.6c9.11,4.67,13.97,14.34,12.98,23.94
	c-0.05,0.52,0.37,0.9,0.81,0.9c0.18,0,0.37-0.06,0.53-0.2c4.41-3.87,10.1-5.98,15.92-5.98c3.75,0,7.56,0.88,11.12,2.73
	C599.75,369.14,603.64,385.09,596.32,397.16z M137.89,340.7c5.52,29.25-19.75,60.15-32.07,73.18c-1.85,1.96-3.43,3.54-4.54,4.62
	c-0.87,0.85-2.03,1.3-3.21,1.3c-0.4,0-0.8-0.05-1.19-0.16c-2.63-0.7-7.21-2.04-12.75-4.03c-18.65-6.68-48.78-21.01-57.15-46.06
	c-5.43-16.25,3.44-34.09,20.01-38.46c2.5-0.66,5.01-0.97,7.48-0.97c9.4,0,18.2,4.56,23.65,12.06c0.2,0.28,0.5,0.41,0.79,0.41
	c0.46,0,0.92-0.32,0.99-0.87c1.39-11.63,9.74-21.77,21.78-24.86c2.39-0.61,4.78-0.91,7.12-0.91
	C122.72,315.97,135.17,326.29,137.89,340.7z"/>
</svg>
